<svg width="122" height="122" fill="none" xmlns="http://www.w3.org/2000/svg"><path d="M0 61C0 15.25 15.25 0 61 0s61 15.25 61 61-15.25 61-61 61S0 106.75 0 61z" fill="#51B341"/><path d="M57.113 78.739c1.086-.035 2.52.154 4.333.687 11.182 3.29 29.639.956 39.669-22.909-24.816-6.767-38.067 6.47-42.4 17.37-.092.233-.107.421-.2.638 10.754-10.892 30.073-16.567 39.53-16.729C76.683 59.938 64.533 71.51 58.882 76.89c-.567.54-1.33 1.45-1.768 1.849z" fill="#fff"/><path d="M56.288 73.961c-11.653.252-31.868-6.993-35.31-32.65 25.721-.045 36.206 21.559 37.538 33.214-3.406-16.619-25.628-27.437-35.061-31.008C42.93 52.797 53.748 66.58 56.288 73.96z" fill="#fff"/></svg>