<svg width="122" height="122" viewBox="0 0 122 122" fill="none" xmlns="http://www.w3.org/2000/svg">
<path d="M0 61C0 15.25 15.25 0 61 0C106.75 0 122 15.25 122 61C122 106.75 106.75 122 61 122C15.25 122 0 106.75 0 61Z" fill="white"/>
<path d="M57.1128 78.7386C58.1989 78.7042 59.6326 78.8927 61.4461 79.4261C72.6282 82.7152 91.0848 80.3821 101.115 56.517C76.2986 49.75 63.0475 62.9863 58.7153 73.8879C58.6229 74.1203 58.6078 74.3085 58.5158 74.5249C69.2688 63.6332 88.5881 57.9581 98.0459 57.7962C76.6824 59.9377 64.5318 71.5086 58.8809 76.89C58.3142 77.4296 57.5515 78.3392 57.1128 78.7386Z" fill="#51B341"/>
<path d="M56.288 73.9611C44.6349 74.2128 24.4201 66.9679 20.9774 41.3108C46.6994 41.2659 57.1839 62.8699 58.5158 74.5249C55.1101 57.9065 32.8878 47.088 23.4548 43.5167C42.9298 52.7974 53.7475 66.5809 56.288 73.9611Z" fill="#51B341"/>
</svg>
